HIERARCHY
ROOT Hips
{
	OFFSET 0.00000 0.00000 0.00000
	CHANNELS 6 Xposition Yposition Zposition Zrotation Yrotation Xrotation 
	JOINT LHipJoint
	{
		OFFSET 0 0 0
		CHANNELS 3 Zrotation Yrotation Xrotation
		JOINT LeftHip
		{
			OFFSET 1.54859 -1.61379 0.86856
			CHANNELS 3 Zrotation Yrotation Xrotation
			JOINT LeftKnee
			{
				OFFSET 2.25087 -6.18423 0.00000
				CHANNELS 3 Zrotation Yrotation Xrotation
				JOINT LeftAnkle
				{
					OFFSET 2.40328 -6.60297 0.00000
					CHANNELS 3 Zrotation Yrotation Xrotation
					JOINT LeftToe
					{
						OFFSET 0.17435 -0.47901 2.02453
						CHANNELS 3 Zrotation Yrotation Xrotation
						End Site
						{
							OFFSET 0.00000 -0.00000 1.04844
						}
					}
				}
			}
		}
	}
	JOINT RHipJoint
	{
		OFFSET 0 0 0
		CHANNELS 3 Zrotation Yrotation Xrotation
		JOINT RightHip
		{
			OFFSET -1.54669 -1.61379 0.86856
			CHANNELS 3 Zrotation Yrotation Xrotation
			JOINT RightKnee
			{
				OFFSET -2.28132 -6.26789 0.00000
				CHANNELS 3 Zrotation Yrotation Xrotation
				JOINT RightAnkle
				{
					OFFSET -2.51636 -6.91365 0.00000
					CHANNELS 3 Zrotation Yrotation Xrotation
					JOINT RightToe
					{
						OFFSET -0.15124 -0.41552 2.21090
						CHANNELS 3 Zrotation Yrotation Xrotation
						End Site
						{
							OFFSET -0.00000 -0.00000 1.13399
						}
					}
				}
			}
		}
	}
	JOINT lowerback
	{
		OFFSET 0 0 0
		CHANNELS 3 Zrotation Yrotation Xrotation
		JOINT Chest
		{
			OFFSET -0.04287 2.26161 -0.25690
			CHANNELS 3 Zrotation Yrotation Xrotation
			JOINT Chest2
			{
				OFFSET 0.02248 2.28395 -0.10140
				CHANNELS 3 Zrotation Yrotation Xrotation
				JOINT lowerneck
				{
					OFFSET 0 0 0
					CHANNELS 3 Zrotation Yrotation Xrotation
					JOINT Neck
					{
						OFFSET -0.11644 1.38496 0.11345
						CHANNELS 3 Zrotation Yrotation Xrotation
						JOINT Head
						{
							OFFSET 0.29383 1.36600 0.06642
							CHANNELS 3 Zrotation Yrotation Xrotation
							End Site
							{
								OFFSET 0.11075 1.41395 -0.00294
							}
						}
					}
				}
				JOINT LeftCollar
				{
					OFFSET 0 0 0
					CHANNELS 3 Zrotation Yrotation Xrotation
					JOINT LeftShoulder
					{
						OFFSET 3.51628 0.59542 -0.30346
CHANNELS 3 Zrotation Xrotation Yrotation
						JOINT LeftElbow
						{
OFFSET 0 -4.764050 0.000000
CHANNELS 3 Zrotation Xrotation Yrotation
							JOINT LeftWrist
							{
OFFSET 0 -3.137590 -0.000000
CHANNELS 3 Zrotation Xrotation Yrotation
								JOINT lhand
								{
									OFFSET 0 0 0
CHANNELS 3 Zrotation Xrotation Yrotation
									JOINT LFingers
									{
OFFSET 0 -0.732260 -0.000000
CHANNELS 3 Zrotation Xrotation Yrotation
										End Site
										{
OFFSET 0 -0.590370 -0.000000
										}
									}
								}
								JOINT LThumb
								{
OFFSET 0 0.000000 0.000000
CHANNELS 3 Zrotation Xrotation Yrotation
									End Site
									{
OFFSET 0 -0.599380 0.599380
									}
								}
							}
						}
					}
				}
				JOINT RightCollar
				{
					OFFSET 0 0 0
					CHANNELS 3 Zrotation Yrotation Xrotation
					JOINT RightShoulder
					{
						OFFSET -3.30990 0.84213 -0.36430
CHANNELS 3 Zrotation Xrotation Yrotation
						JOINT RightElbow
						{
OFFSET 0 -5.101610 -0.000000
CHANNELS 3 Zrotation Xrotation Yrotation
							JOINT RightWrist
							{
OFFSET 0 -3.232670 -0.000000
CHANNELS 3 Zrotation Xrotation Yrotation
								JOINT rhand
								{
									OFFSET 0 0 0
CHANNELS 3 Zrotation Xrotation Yrotation
									JOINT RFingers
									{
OFFSET 0 -0.702000 -0.000000
CHANNELS 3 Zrotation Xrotation Yrotation
										End Site
										{
OFFSET 0 -0.565970 -0.000000
										}
									}
								}
								JOINT RThumb
								{
OFFSET 0 0.000000 0.000000
CHANNELS 3 Zrotation Xrotation Yrotation
									End Site
									{
OFFSET 0 -0.574610 0.574610
									}
								}
							}
						}
					}
				}
			}
		}
	}
}
MOTION
Frames: 5
Frame Time: 0.008333333333333333
5.571200 14.685100 -2.329400 -166.786000 -82.914500 166.476000 0.000000 0.000000 0.000000 -12.277900 1.263800 -31.543000 10.880200 17.876000 62.391900 1.902200 -9.579300 -24.749800 0.688200 -5.303600 -14.776500 0.000000 0.000000 0.000000 16.868400 5.006700 -31.412000 -10.992600 -17.931500 62.757500 -1.831900 -5.735000 -28.158800 -0.544700 4.728300 -13.135300 -2.273700 1.103900 13.163100 0.718100 0.860400 6.613900 1.914800 0.219000 -0.484400 -17.216100 -7.425500 -3.221300 26.329300 -8.626600 -12.416700 11.198700 -4.757000 -0.796300 0.000000 -0.000000 0.000000 86.476700 -59.292200 10.725700 42.657900 -49.568100 20.440000 15.251500 5.246400 -19.795900 0.000000 0.000000 0.000000 -7.125000 0.000000 0.000000 -13.008700 49.987600 1.623700 0.000000 -0.000000 0.000000 -83.253600 -67.400000 -13.083600 -40.683300 -48.469500 -18.949200 -2.040800 -2.150500 -24.600100 0.000000 0.000000 0.000000 7.125000 0.000000 -0.000000 16.688500 6.205200 15.474400
5.571177 14.685243 -2.329385 -166.793813 -82.909301 166.479907 0.000000 0.000000 0.000000 -12.278381 1.270073 -31.536562 10.878622 17.875211 62.386761 1.901930 -9.574710 -24.747869 0.687118 -5.299483 -14.764705 0.000000 0.000000 0.000000 16.869399 5.012094 -31.405427 -10.991413 -17.930914 62.753639 -1.831089 -5.738614 -28.155374 -0.544993 4.729555 -13.138853 -2.276119 1.105049 13.159952 0.720264 0.861369 6.620143 1.918331 0.219053 -0.476271 -17.218977 -7.427461 -3.227648 26.326956 -8.628568 -12.416783 11.197919 -4.757421 -0.794813 0.000000 0.000000 0.000000 86.479750 -59.288324 10.729689 42.660206 -49.569332 20.441758 15.252672 5.247271 -19.799371 0.000000 0.000000 0.000000 -7.125000 0.000000 0.000000 -13.008880 49.991236 1.624902 0.000000 0.000000 0.000000 -83.270954 -67.402952 -13.092608 -40.686057 -48.471093 -18.951266 -2.005807 -2.136992 -24.580440 0.000000 0.000000 0.000000 7.125000 0.000000 0.000000 16.709775 6.226355 15.488839
5.571155 14.685385 -2.329370 -166.801626 -82.904103 166.483813 0.000000 0.000000 0.000000 -12.278862 1.276346 -31.530124 10.877045 17.874422 62.381623 1.901659 -9.570120 -24.745939 0.686036 -5.295366 -14.752911 0.000000 0.000000 0.000000 16.870398 5.017488 -31.398853 -10.990226 -17.930328 62.749777 -1.830277 -5.742227 -28.151949 -0.545286 4.730809 -13.142407 -2.278538 1.106199 13.156805 0.722427 0.862338 6.626386 1.921862 0.219105 -0.468143 -17.221855 -7.429422 -3.233996 26.324612 -8.630537 -12.416865 11.197137 -4.757841 -0.793325 0.000000 0.000000 0.000000 86.482800 -59.284447 10.733678 42.662513 -49.570564 20.443516 15.253844 5.248143 -19.802842 0.000000 0.000000 0.000000 -7.125000 0.000000 0.000000 -13.009061 49.994872 1.626104 0.000000 0.000000 0.000000 -83.288308 -67.405905 -13.101615 -40.688814 -48.472685 -18.953332 -1.970813 -2.123485 -24.560779 0.000000 0.000000 0.000000 7.125000 0.000000 0.000000 16.731051 6.247511 15.503278
5.571132 14.685528 -2.329355 -166.809439 -82.898904 166.487720 0.000000 0.000000 0.000000 -12.279342 1.282619 -31.523685 10.875467 17.873634 62.376484 1.901389 -9.565530 -24.744008 0.684955 -5.291249 -14.741116 0.000000 0.000000 0.000000 16.871397 5.022882 -31.392280 -10.989039 -17.929742 62.745916 -1.829466 -5.745841 -28.148523 -0.545579 4.732064 -13.145960 -2.280957 1.107348 13.153657 0.724591 0.863307 6.632629 1.925393 0.219158 -0.460014 -17.224732 -7.431382 -3.240344 26.322268 -8.632505 -12.416948 11.196356 -4.758262 -0.791838 0.000000 0.000000 0.000000 86.485850 -59.280571 10.737667 42.664819 -49.571796 20.445274 15.255016 5.249014 -19.806312 0.000000 0.000000 0.000000 -7.125000 0.000000 0.000000 -13.009241 49.998508 1.627306 0.000000 0.000000 0.000000 -83.305662 -67.408857 -13.110623 -40.691571 -48.474278 -18.955398 -1.935820 -2.109977 -24.541119 0.000000 0.000000 0.000000 7.125000 0.000000 0.000000 16.752326 6.268666 15.517717
5.571110 14.685671 -2.329340 -166.817252 -82.893705 166.491626 0.000000 0.000000 0.000000 -12.279823 1.288892 -31.517247 10.873889 17.872845 62.371346 1.901118 -9.560939 -24.742077 0.683873 -5.287133 -14.729321 0.000000 0.000000 0.000000 16.872397 5.028276 -31.385706 -10.987852 -17.929156 62.742054 -1.828655 -5.749454 -28.145097 -0.545872 4.733318 -13.149514 -2.283376 1.108498 13.150509 0.726754 0.864276 6.638872 1.928924 0.219210 -0.451886 -17.227609 -7.433343 -3.246692 26.319924 -8.634473 -12.417031 11.195575 -4.758683 -0.790350 0.000000 0.000000 0.000000 86.488900 -59.276694 10.741657 42.667125 -49.573028 20.447032 15.256188 5.249886 -19.809783 0.000000 0.000000 0.000000 -7.125000 0.000000 0.000000 -13.009421 50.002144 1.628508 0.000000 0.000000 0.000000 -83.323016 -67.411810 -13.119630 -40.694328 -48.475871 -18.957464 -1.900827 -2.096470 -24.521459 0.000000 0.000000 0.000000 7.125000 0.000000 0.000000 16.773602 6.289821 15.532156
